[Header]
FileType HTR
DataType HTRS
FileVersion 1
NumSegments 22
NumFrames 5
DataFrameRate 24
EulerRotationOrder ZYX
CalibrationUnits mm
RotationUnits Degrees
GlobalAxisofGravity Y
BoneLengthAxis Y
ScaleFactor 1.0
[SegmentNames&Hierarchy]
reference	GLOBAL
Hips	reference
Spine	Hips
Spine1	Spine
Neck	Spine1
Head	Neck
LeftShoulder	Spine1
LeftArm	LeftShoulder
LeftForeArm	LeftArm
LeftHand	LeftForeArm
RightShoulder	Spine1
RightArm	RightShoulder
RightForeArm	RightArm
RightHand	RightForeArm
LeftUpLeg	Hips
LeftLeg	LeftUpLeg
LeftFoot	LeftLeg
LeftToeBase	LeftFoot
RightUpLeg	Hips
RightLeg	RightUpLeg
RightFoot	RightLeg
RightToeBase	RightFoot
[BasePosition]
reference	0	0	0	0	0	0	1
Hips	0	0	0	0	0	0	1
Spine	0	0	0	0	-0	90	1
Spine1	0	0	0	0	0	0	1
Neck	0	0	0	-7.352430803	-7.352430803	90	1
Head	0	0	0	0	-0	90	1
LeftShoulder	0	0	0	0	0	0	1
LeftArm	0	0	0	0	0	0	1
LeftForeArm	0	0	0	0	0	0	1
LeftHand	0	0	0	0	0	0	1
RightShoulder	0	0	0	0	-0	180	1
RightArm	0	0	0	0	-0	180	1
RightForeArm	0	0	0	0	-0	180	1
RightHand	0	0	0	0	-0	180	1
LeftUpLeg	0	0	0	0	-0	-90	1
LeftLeg	0	0	0	0	-0	-90	1
LeftFoot	0	0	0	66.57150701	-66.57150701	-90	1
LeftToeBase	0	0	0	0	-90	0	1
RightUpLeg	0	0	0	0	-0	-90	1
RightLeg	0	0	0	0	-0	-90	1
RightFoot	0	0	0	66.57150701	-66.57150701	-90	1
RightToeBase	0	0	0	0	-90	0	1
[reference]
46	0	0	0	0	-0	0	1.0
47	0	0	0	0	-0	0	1.0
48	0	0	0	0	-0	0	1.0
49	0	0	0	0	-0	0	1.0
50	0	0	0	0	-0	0	1.0
[Hips]
46	0.3625456691	8.684488297	-0.409270525	17.30963707	-38.5338974	-16.99053192	1.0
47	0.2254323512	8.652990341	-0.3792922497	13.61353397	-36.88565445	-12.607687	1.0
48	0.1277938932	8.652990341	-0.3650506139	12.66447639	-39.16609192	-10.41279888	1.0
49	0.01465999987	8.652990341	-0.3878836036	13.04946899	-43.25785828	-9.548721313	1.0
50	-0.09665170312	8.652990341	-0.4404259324	12.93073654	-46.31385422	-8.876050949	1.0
[Spine]
46	0	0.7478299737	0	-13.44108677	0.6937776804	-90.68756104	1.0
47	0	0.7478299737	0	-14.05016327	1.997790575	-90.26009369	1.0
48	0	0.7478299737	0	-14.54200268	4.087580681	-89.69178009	1.0
49	0	0.7478299737	0	-15.60824394	5.457452297	-90.06096649	1.0
50	0	0.7478299737	0	-16.27088165	5.317396164	-90.3049469	1.0
[Spine1]
46	0	2.049309969	0	7.56584549	0.4740660191	-2.696912766	1.0
47	0	2.049309969	0	7.557476044	1.059412837	-5.911092758	1.0
48	0	2.049309969	0	6.645561218	1.82827878	-7.806838512	1.0
49	0	2.049309969	0	6.900563717	2.279249668	-7.296945572	1.0
50	0	2.049309969	0	7.588203907	2.238091707	-6.853909492	1.0
[Neck]
46	0	2.231709957	0	5.986492634	-17.4000721	-77.02937317	1.0
47	0	2.231709957	0	7.484080315	-18.72185135	-80.44587708	1.0
48	0	2.231709957	0	5.965860844	-18.94675827	-81.47549438	1.0
49	0	2.231709957	0	3.942411423	-17.86264801	-82.82601929	1.0
50	0	2.231709957	0	2.508385181	-16.4734726	-83.43980408	1.0
[Head]
46	0	1.413589954	0.1823999882	-9.7218256	-23.58847237	-85.12281036	1.0
47	0	1.413589954	0.1823999882	-11.85507298	-25.09405899	-80.5893631	1.0
48	0	1.413589954	0.1823999882	-10.78039265	-25.70382309	-81.60441589	1.0
49	0	1.413589954	0.1823999882	-9.770051003	-25.0714283	-81.31598663	1.0
50	0	1.413589954	0.1823999882	-9.444824219	-23.89938164	-80.9389801	1.0
[LeftShoulder]
46	0.3649300039	1.825889945	-0.04271000251	-12.19357014	-12.31459808	7.092144489	1.0
47	0.3649300039	1.825889945	-0.04271000251	-12.67460155	-11.20959568	6.558421612	1.0
48	0.3649300039	1.825889945	-0.04271000251	-12.48447037	-9.736855507	5.322981834	1.0
49	0.3649300039	1.825889945	-0.04271000251	-12.20842552	-8.127552032	4.883959293	1.0
50	0.3649300039	1.825889945	-0.04271000251	-11.57203102	-7.142520428	5.101778507	1.0
[LeftArm]
46	1.24003005	0	0	47.5597229	-4.66097641	-75.16594696	1.0
47	1.24003005	0	0	47.02046585	-4.472920418	-73.43186188	1.0
48	1.24003005	0	0	44.63150024	-2.387785196	-71.82200623	1.0
49	1.24003005	0	0	42.50447464	1.166466594	-72.00257874	1.0
50	1.24003005	0	0	40.26541901	5.162875175	-72.9887085	1.0
[LeftForeArm]
46	2.847419977	0	0	-171.6557922	-63.63340378	169.1841888	1.0
47	2.847419977	0	0	-177.1902618	-66.47431183	172.9581146	1.0
48	2.847419977	0	0	-181.8245697	-68.33531952	177.4104767	1.0
49	2.847419977	0	0	-185.6612549	-71.04144287	180.0028229	1.0
50	2.847419977	0	0	-187.419754	-76.00885773	181.1494141	1.0
[LeftHand]
46	2.258270025	0	0	-8.051485062	-14.5972271	-7.503494263	1.0
47	2.258270025	0	0	-7.084729195	-14.57305241	-6.514817238	1.0
48	2.258270025	0	0	-4.791260242	-14.23446941	-6.782738209	1.0
49	2.258270025	0	0	-4.980996132	-14.36258507	-5.379917145	1.0
50	2.258270025	0	0	-5.269583702	-15.17262077	-5.110746384	1.0
[RightShoulder]
46	-0.3646599948	1.825889945	-0.04271000251	-5.687470913	3.99488163	176.5815125	1.0
47	-0.3646599948	1.825889945	-0.04271000251	-5.389960289	3.925089836	176.7903137	1.0
48	-0.3646599948	1.825889945	-0.04271000251	-5.689179897	4.513866425	177.070755	1.0
49	-0.3646599948	1.825889945	-0.04271000251	-6.455120087	5.768151283	176.7224579	1.0
50	-0.3646599948	1.825889945	-0.04271000251	-7.266471386	6.847989082	176.3294067	1.0
[RightArm]
46	-1.24003005	0	0	46.57549286	-7.845956802	-103.9228668	1.0
47	-1.24003005	0	0	46.54564667	-8.382491112	-102.8231812	1.0
48	-1.24003005	0	0	49.51187897	-7.894841194	-102.8568344	1.0
49	-1.24003005	0	0	52.03836823	-6.628589153	-103.176712	1.0
50	-1.24003005	0	0	53.58065033	-5.301054955	-102.7206116	1.0
[RightForeArm]
46	-2.847419977	0	0	-121.8923264	52.05418396	31.90111732	1.0
47	-2.847419977	0	0	-119.2631683	54.75497055	35.32556152	1.0
48	-2.847419977	0	0	-112.3584595	57.06113052	42.6940918	1.0
49	-2.847419977	0	0	-105.339798	60.91315079	50.68832397	1.0
50	-2.847419977	0	0	-94.48400879	65.7692337	64.79631805	1.0
[RightHand]
46	-2.258270025	0	0	-2.747305393	15.17321205	178.8384705	1.0
47	-2.258270025	0	0	-2.592673063	15.29861259	178.7262421	1.0
48	-2.258270025	0	0	-3.969714165	15.91908455	178.66362	1.0
49	-2.258270025	0	0	-3.363329411	16.57855034	177.8213806	1.0
50	-2.258270025	0	0	-3.546092033	17.3246727	179.005127	1.0
[LeftUpLeg]
46	0.9119900465	0	0	-13.90868473	14.45851707	101.7749023	1.0
47	0.9119900465	0	0	-13.48361301	11.81723785	98.80348206	1.0
48	0.9119900465	0	0	-12.25956154	5.329970837	98.47483826	1.0
49	0.9119900465	0	0	-10.53254986	2.083684206	98.70279694	1.0
50	0.9119900465	0	0	-8.02044487	0.3094982505	98.63340759	1.0
[LeftLeg]
46	0	-4.371409893	0	27.36773682	-5.137248516	84.54501343	1.0
47	0	-4.371409893	0	28.50731468	-5.955491066	85.56809998	1.0
48	0	-4.371409893	0	26.77843285	-0.6157159805	85.79034424	1.0
49	0	-4.371409893	0	23.41790771	3.227639675	85.42650604	1.0
50	0	-4.371409893	0	19.25040817	6.46490097	85.48249817	1.0
[LeftFoot]
46	0	-3.918009996	0	-107.0858383	117.9426956	-46.44052887	1.0
47	0	-3.918009996	0	-106.2279968	116.6568604	-45.85886383	1.0
48	0	-3.918009996	0	-101.1393585	116.6662674	-40.22940063	1.0
49	0	-3.918009996	0	-95.38973999	117.0617905	-34.4928894	1.0
50	0	-3.918009996	0	-92.79393768	117.4938889	-33.10439301	1.0
[LeftToeBase]
46	0	-0.5927900076	1.367989898	0	0	0	1.0
47	0	-0.5927900076	1.367989898	0	0	0	1.0
48	0	-0.5927900076	1.367989898	0	0	0	1.0
49	0	-0.5927900076	1.367989898	0	0	0	1.0
50	0	-0.5927900076	1.367989898	0	0	0	1.0
[RightUpLeg]
46	-0.9119900465	0	0	-10.49852276	-18.48711014	98.44013214	1.0
47	-0.9119900465	0	0	-0.7090470791	-24.8170433	95.21869659	1.0
48	-0.9119900465	0	0	1.382754922	-26.91477394	93.50610352	1.0
49	-0.9119900465	0	0	0.9504263401	-28.66407967	93.26532745	1.0
50	-0.9119900465	0	0	1.746327162	-31.34339523	92.6227417	1.0
[RightLeg]
46	0	-4.371409893	0	20.12098885	-17.01706696	82.00124359	1.0
47	0	-4.371409893	0	4.405806541	-19.95190048	89.49655914	1.0
48	0	-4.371409893	0	-0.2449644804	-15.61423779	91.84368896	1.0
49	0	-4.371409893	0	-1.197634816	-11.98894215	91.55529785	1.0
50	0	-4.371409893	0	-2.864011765	-8.550754547	92.32110596	1.0
[RightFoot]
46	0	-3.918009996	0	65.22657776	52.38663483	99.37433624	1.0
47	0	-3.918009996	0	56.15951538	57.42337799	92.17533875	1.0
48	0	-3.918009996	0	52.17884064	58.77264404	88.82130432	1.0
49	0	-3.918009996	0	55.33114243	59.68446732	92.81446838	1.0
50	0	-3.918009996	0	58.54742432	60.98243713	95.59249115	1.0
[RightToeBase]
46	0	-0.5927900076	1.367989898	0	0	0	1.0
47	0	-0.5927900076	1.367989898	0	0	0	1.0
48	0	-0.5927900076	1.367989898	0	0	0	1.0
49	0	-0.5927900076	1.367989898	0	0	0	1.0
50	0	-0.5927900076	1.367989898	0	0	0	1.0
[EndOfFile]
